<svg width="80" height="80" viewBox="0 0 80 80" fill="none" xmlns="http://www.w3.org/2000/svg">
<path d="M54.375 17.4217C50.5149 12.9636 46.1705 8.94933 41.4219 5.45291C41.0015 5.15845 40.5007 5.00049 39.9875 5.00049C39.4743 5.00049 38.9735 5.15845 38.5531 5.45291C33.8133 8.95079 29.4772 12.9651 25.625 17.4217C17.0344 27.2873 12.5 37.6873 12.5 47.4998C12.5 54.7932 15.3973 61.788 20.5546 66.9452C25.7118 72.1025 32.7065 74.9998 40 74.9998C47.2935 74.9998 54.2882 72.1025 59.4454 66.9452C64.6027 61.788 67.5 54.7932 67.5 47.4998C67.5 37.6873 62.9656 27.2873 54.375 17.4217ZM40 69.9998C34.0347 69.9932 28.3155 67.6205 24.0974 63.4024C19.8793 59.1842 17.5066 53.4651 17.5 47.4998C17.5 29.6154 34.8344 14.6873 40 10.6248C45.1656 14.6873 62.5 29.6092 62.5 47.4998C62.4934 53.4651 60.1207 59.1842 55.9026 63.4024C51.6845 67.6205 45.9653 69.9932 40 69.9998ZM57.4656 50.4185C56.8174 54.0395 55.0753 57.3749 52.4739 59.9757C49.8725 62.5766 46.5367 64.3179 42.9156 64.9654C42.7782 64.9874 42.6392 64.9989 42.5 64.9998C41.8729 64.9996 41.2688 64.7638 40.8074 64.3391C40.346 63.9143 40.0611 63.3317 40.0092 62.7068C39.9573 62.0818 40.1422 61.4602 40.5271 60.9651C40.9121 60.4701 41.469 60.1378 42.0875 60.0342C47.2656 59.1623 51.6594 54.7685 52.5375 49.581C52.6486 48.9271 53.0148 48.3441 53.5558 47.9602C54.0967 47.5764 54.768 47.4231 55.4219 47.5342C56.0758 47.6452 56.6588 48.0115 57.0427 48.5524C57.4265 49.0934 57.5798 49.7646 57.4688 50.4185H57.4656Z" fill="black"/>
</svg>
