<svg width="72" height="72" viewBox="0 0 72 72" fill="none" xmlns="http://www.w3.org/2000/svg">
<path d="M36 22.5C33.33 22.5 30.7199 23.2918 28.4998 24.7752C26.2797 26.2586 24.5494 28.367 23.5276 30.8338C22.5058 33.3006 22.2385 36.015 22.7594 38.6337C23.2803 41.2525 24.566 43.6579 26.4541 45.5459C28.3421 47.434 30.7475 48.7197 33.3663 49.2406C35.985 49.7615 38.6994 49.4942 41.1662 48.4724C43.633 47.4506 45.7414 45.7203 47.2248 43.5002C48.7082 41.2801 49.5 38.67 49.5 36C49.4963 32.4207 48.0728 28.9891 45.5418 26.4582C43.0109 23.9272 39.5793 22.5037 36 22.5ZM36 45C34.22 45 32.4799 44.4722 30.9999 43.4832C29.5198 42.4943 28.3663 41.0887 27.6851 39.4441C27.0039 37.7996 26.8257 35.99 27.1729 34.2442C27.5202 32.4984 28.3774 30.8947 29.636 29.636C30.8947 28.3774 32.4984 27.5202 34.2442 27.1729C35.99 26.8257 37.7996 27.0039 39.4441 27.6851C41.0887 28.3663 42.4943 29.5198 43.4832 30.9999C44.4722 32.4799 45 34.22 45 36C45 38.3869 44.0518 40.6761 42.364 42.364C40.6761 44.0518 38.3869 45 36 45ZM49.5 6.75H22.5C18.3242 6.75447 14.3207 8.41527 11.368 11.368C8.41527 14.3207 6.75447 18.3242 6.75 22.5V49.5C6.75447 53.6758 8.41527 57.6793 11.368 60.632C14.3207 63.5847 18.3242 65.2455 22.5 65.25H49.5C53.6758 65.2455 57.6793 63.5847 60.632 60.632C63.5847 57.6793 65.2455 53.6758 65.25 49.5V22.5C65.2455 18.3242 63.5847 14.3207 60.632 11.368C57.6793 8.41527 53.6758 6.75447 49.5 6.75ZM60.75 49.5C60.75 52.4837 59.5647 55.3452 57.455 57.455C55.3452 59.5647 52.4837 60.75 49.5 60.75H22.5C19.5163 60.75 16.6548 59.5647 14.545 57.455C12.4353 55.3452 11.25 52.4837 11.25 49.5V22.5C11.25 19.5163 12.4353 16.6548 14.545 14.545C16.6548 12.4353 19.5163 11.25 22.5 11.25H49.5C52.4837 11.25 55.3452 12.4353 57.455 14.545C59.5647 16.6548 60.75 19.5163 60.75 22.5V49.5ZM54 21.375C54 22.0425 53.8021 22.695 53.4312 23.25C53.0604 23.8051 52.5333 24.2376 51.9166 24.4931C51.2999 24.7485 50.6213 24.8154 49.9666 24.6852C49.3119 24.5549 48.7105 24.2335 48.2385 23.7615C47.7665 23.2895 47.4451 22.6881 47.3148 22.0334C47.1846 21.3787 47.2515 20.7001 47.5069 20.0834C47.7624 19.4667 48.1949 18.9396 48.75 18.5688C49.305 18.1979 49.9575 18 50.625 18C51.5201 18 52.3785 18.3556 53.0115 18.9885C53.6444 19.6214 54 20.4799 54 21.375Z" fill="white"/>
</svg>
