<svg width="80" height="80" viewBox="0 0 80 80" fill="none" xmlns="http://www.w3.org/2000/svg">
<path d="M77.3844 14.9653C77.3487 14.3537 77.0896 13.7765 76.6564 13.3433C76.2232 12.9101 75.646 12.651 75.0344 12.6153C58.8594 11.6778 45.8719 16.5966 40.2906 25.8091C36.6031 31.8997 36.6094 39.2966 40.2406 46.3528C38.1738 48.8133 36.6632 51.6916 35.8125 54.7903L30.7281 49.6872C33.1719 44.5841 33.0781 39.2653 30.4156 34.8466C26.2906 28.0372 16.7688 24.3872 4.94688 25.081C4.33527 25.1167 3.75807 25.3757 3.32486 25.8089C2.89165 26.2421 2.6326 26.8193 2.59688 27.431C1.90001 39.2528 5.55313 48.7747 12.3625 52.8997C14.6096 54.2726 17.1917 54.9992 19.825 54.9997C22.3809 54.9682 24.8971 54.3627 27.1875 53.2278L35 61.0403V69.9997C35 70.6627 35.2634 71.2986 35.7322 71.7675C36.2011 72.2363 36.837 72.4997 37.5 72.4997C38.163 72.4997 38.7989 72.2363 39.2678 71.7675C39.7366 71.2986 40 70.6627 40 69.9997V60.7841C39.9889 56.8069 41.3423 52.9462 43.8344 49.8466C47.0498 51.527 50.616 52.4263 54.2438 52.4716C57.7512 52.4829 61.1935 51.5247 64.1906 49.7028C73.4031 44.1278 78.3344 31.1403 77.3844 14.9653ZM14.9406 48.6247C10.1469 45.7216 7.43438 38.8497 7.50001 29.9997C16.35 29.9247 23.2219 32.6466 26.125 37.4403C27.6406 39.9403 27.8875 42.856 26.8938 45.8591L19.2656 38.231C18.793 37.7819 18.1636 37.5353 17.5117 37.5436C16.8598 37.5519 16.2369 37.8146 15.7759 38.2756C15.3149 38.7366 15.0523 39.3595 15.0439 40.0114C15.0356 40.6633 15.2822 41.2927 15.7313 41.7653L23.3594 49.3935C20.3563 50.3872 17.4438 50.1403 14.9406 48.6247ZM61.6 45.431C57.4125 47.9653 52.4906 48.1591 47.4906 46.056L64.2688 29.2747C64.7178 28.802 64.9645 28.1727 64.9561 27.5208C64.9478 26.8689 64.6851 26.246 64.2241 25.785C63.7631 25.324 63.1402 25.0613 62.4883 25.053C61.8364 25.0446 61.207 25.2913 60.7344 25.7403L43.9531 42.4997C41.8406 37.4997 42.0313 32.5747 44.5781 28.3903C48.9344 21.2028 59.2656 17.1966 72.4938 17.506C72.7938 30.731 68.7938 41.0747 61.6 45.431Z" fill="black"/>
</svg>
