<svg width="80" height="80" viewBox="0 0 80 80" fill="none" xmlns="http://www.w3.org/2000/svg">
<path d="M30 64.9999C30 65.663 29.7366 66.2989 29.2678 66.7677C28.7989 67.2365 28.1631 67.4999 27.5 67.4999H12.5C11.1839 67.4991 9.89112 67.152 8.75161 66.4934C7.6121 65.8348 6.66597 64.888 6.00825 63.7479C5.35052 62.6079 5.00438 61.3149 5.00458 59.9988C5.00478 58.6826 5.35132 57.3897 6.00939 56.2499L16.725 37.7343L12.3344 38.9062C12.0163 38.9911 11.6847 39.0126 11.3583 38.9694C11.032 38.9261 10.7174 38.819 10.4324 38.6542C9.85689 38.3214 9.4372 37.7735 9.26564 37.1312C9.09408 36.4888 9.1847 35.8047 9.51758 35.2292C9.85046 34.6537 10.3983 34.234 11.0406 34.0624L21.2813 31.3218C21.5985 31.2367 21.9294 31.215 22.255 31.2579C22.5806 31.3008 22.8946 31.4074 23.179 31.5716C23.4634 31.7359 23.7126 31.9546 23.9125 32.2152C24.1124 32.4758 24.2589 32.7733 24.3438 33.0905L27.0906 43.3312C27.1774 43.6498 27.2002 43.9826 27.1576 44.3101C27.115 44.6376 27.008 44.9535 26.8427 45.2394C26.6773 45.5253 26.457 45.7756 26.1943 45.9759C25.9317 46.1762 25.632 46.3224 25.3125 46.4062C25.1002 46.4614 24.8819 46.4898 24.6625 46.4905C24.1125 46.49 23.5781 46.3082 23.142 45.9732C22.7058 45.6381 22.3923 45.1687 22.25 44.6374L21.0625 40.2155L10.3469 58.7499C10.128 59.1291 10.0125 59.5591 10.0119 59.9969C10.0114 60.4348 10.1259 60.8651 10.3439 61.2448C10.5619 61.6245 10.8758 61.9403 11.2542 62.1605C11.6326 62.3808 12.0622 62.4978 12.5 62.4999H27.5C28.1631 62.4999 28.7989 62.7633 29.2678 63.2322C29.7366 63.701 30 64.3369 30 64.9999ZM73.9781 56.2499L66.7469 43.7499C66.401 43.2058 65.8582 42.8163 65.2319 42.6629C64.6056 42.5095 63.9442 42.604 63.386 42.9267C62.8277 43.2494 62.4157 43.7753 62.2361 44.3946C62.0564 45.0138 62.123 45.6786 62.4219 46.2499L69.6531 58.7499C69.872 59.1291 69.9875 59.5591 69.9881 59.9969C69.9886 60.4348 69.8741 60.8651 69.6561 61.2448C69.4381 61.6245 69.1242 61.9403 68.7458 62.1605C68.3674 62.3808 67.9378 62.4978 67.5 62.4999H46.0344L49.2656 59.2687C49.7347 58.8 49.9984 58.1641 49.9987 57.501C49.999 56.8379 49.7359 56.2018 49.2672 55.7327C48.7985 55.2636 48.1627 54.9999 47.4995 54.9996C46.8364 54.9993 46.2004 55.2625 45.7313 55.7312L38.2313 63.2312C37.9988 63.4634 37.8144 63.7391 37.6886 64.0426C37.5628 64.3461 37.498 64.6714 37.498 64.9999C37.498 65.3285 37.5628 65.6538 37.6886 65.9573C37.8144 66.2608 37.9988 66.5365 38.2313 66.7687L45.7313 74.2687C45.9635 74.5007 46.2392 74.6848 46.5426 74.8103C46.8461 74.9358 47.1712 75.0004 47.4995 75.0002C47.8279 75.0001 48.153 74.9352 48.4563 74.8095C48.7596 74.6837 49.0351 74.4994 49.2672 74.2671C49.4993 74.0348 49.6833 73.7591 49.8088 73.4557C49.9343 73.1523 49.9989 72.8272 49.9987 72.4988C49.9986 72.1705 49.9338 71.8454 49.808 71.5421C49.6822 71.2388 49.4979 70.9632 49.2656 70.7312L46.0344 67.4999H67.5C68.8161 67.4991 70.1089 67.152 71.2484 66.4934C72.3879 65.8348 73.334 64.888 73.9918 63.7479C74.6495 62.6079 74.9956 61.3149 74.9954 59.9988C74.9952 58.6826 74.6487 57.3897 73.9906 56.2499H73.9781ZM40 9.99992C40.4394 9.99551 40.8719 10.1092 41.2523 10.3291C41.6327 10.549 41.947 10.867 42.1625 11.2499L52.8781 29.7655L48.4781 28.5843C47.8456 28.4358 47.18 28.5395 46.6225 28.8733C46.0651 29.2071 45.6595 29.7448 45.4917 30.3725C45.3239 31.0003 45.4071 31.6687 45.7236 32.2361C46.0402 32.8036 46.5652 33.2255 47.1875 33.4124L57.4313 36.1593C57.6424 36.2148 57.8598 36.2431 58.0781 36.2437C58.6281 36.2432 59.1625 36.0613 59.5987 35.7263C60.0348 35.3913 60.3483 34.9218 60.4906 34.3905L63.2375 24.1437C63.3318 23.8237 63.3611 23.4882 63.3238 23.1568C63.2864 22.8253 63.1831 22.5047 63.0199 22.2138C62.8568 21.9229 62.6371 21.6676 62.3737 21.4629C62.1104 21.2583 61.8088 21.1083 61.4866 21.022C61.1644 20.9357 60.8282 20.9147 60.4978 20.9603C60.1674 21.0059 59.8495 21.1171 59.5627 21.2874C59.276 21.4578 59.0262 21.6838 58.8281 21.9521C58.6301 22.2204 58.4877 22.5257 58.4094 22.8499L57.2219 27.278L46.4906 8.74992C45.8318 7.61191 44.8853 6.66714 43.7461 6.01034C42.6069 5.35355 41.315 5.00781 40 5.00781C38.685 5.00781 37.3932 5.35355 36.254 6.01034C35.1148 6.66714 34.1683 7.61191 33.5094 8.74992L26.2719 21.2499C25.9609 21.8226 25.8858 22.494 26.0627 23.1212C26.2395 23.7484 26.6542 24.2818 27.2184 24.6077C27.7827 24.9337 28.4519 25.0264 29.0836 24.8662C29.7152 24.7059 30.2593 24.3054 30.6 23.7499L37.8375 11.2499C38.053 10.867 38.3673 10.549 38.7478 10.3291C39.1282 10.1092 39.5606 9.99551 40 9.99992Z" fill="black"/>
</svg>
