<svg width="80" height="80" viewBox="0 0 80 80" fill="none" xmlns="http://www.w3.org/2000/svg">
<path d="M57.5 35H47.5V17.5C47.5 16.1739 46.9732 14.9021 46.0355 13.9645C45.0979 13.0268 43.8261 12.5 42.5 12.5H7.5C7.09464 12.5001 6.69537 12.5987 6.33662 12.7874C5.97786 12.9761 5.67036 13.2492 5.44064 13.5832C5.21091 13.9172 5.06584 14.302 5.01793 14.7045C4.97002 15.107 5.02071 15.5152 5.16563 15.8938C8.62188 24.9063 7.90312 42.0531 5.09687 51.8094C5.03345 52.0341 5.00086 52.2665 5 52.5V62.5C5 63.8261 5.52678 65.0979 6.46447 66.0355C7.40215 66.9732 8.67392 67.5 10 67.5H18.1594C18.9361 67.5001 19.7022 67.3193 20.3969 66.9719L24.3406 65H29.4094L33.3531 66.9719C34.0478 67.3193 34.8139 67.5001 35.5906 67.5H44.4094C45.1861 67.5001 45.9522 67.3193 46.6469 66.9719L50.5906 65H55.6594L59.6031 66.9719C60.2978 67.3193 61.0639 67.5001 61.8406 67.5H70C71.3261 67.5 72.5979 66.9732 73.5355 66.0355C74.4732 65.0979 75 63.8261 75 62.5V52.5C74.995 47.8602 73.1497 43.4119 69.8689 40.1311C66.5881 36.8503 62.1398 35.005 57.5 35ZM10.8938 17.5H42.5V25H32.5C31.837 25 31.2011 25.2634 30.7322 25.7322C30.2634 26.2011 30 26.837 30 27.5C30 28.163 30.2634 28.7989 30.7322 29.2678C31.2011 29.7366 31.837 30 32.5 30H42.5V35H32.5C31.837 35 31.2011 35.2634 30.7322 35.7322C30.2634 36.2011 30 36.837 30 37.5C30 38.163 30.2634 38.7989 30.7322 39.2678C31.2011 39.7366 31.837 40 32.5 40H57.5C60.3805 40.0035 63.1718 41.0001 65.4032 42.8217C67.6347 44.6432 69.1699 47.1785 69.75 50H10.7031C12.8125 40.3625 13.2531 26.8219 10.8938 17.5ZM70 62.5H61.8406L57.8969 60.5281C57.2022 60.1807 56.4361 59.9999 55.6594 60H50.5906C49.8139 59.9999 49.0478 60.1807 48.3531 60.5281L44.4094 62.5H35.5906L31.6469 60.5281C30.9522 60.1807 30.1861 59.9999 29.4094 60H24.3406C23.5639 59.9999 22.7978 60.1807 22.1031 60.5281L18.1594 62.5H10V55H70V62.5Z" fill="black"/>
</svg>
