<svg width="72" height="72" viewBox="0 0 72 72" fill="none" xmlns="http://www.w3.org/2000/svg">
<path d="M52.7569 40.7362L43.7569 36.2362C43.4026 36.0597 43.0081 35.9798 42.613 36.0044C42.218 36.0291 41.8364 36.1576 41.5069 36.3769L37.3753 39.1331C35.4787 38.0905 33.918 36.5297 32.8753 34.6331L35.6316 30.5016C35.8509 30.172 35.9793 29.7905 36.004 29.3954C36.0287 29.0004 35.9488 28.6058 35.7722 28.2516L31.2722 19.2516C31.0857 18.8749 30.7974 18.558 30.44 18.3368C30.0826 18.1156 29.6704 17.9989 29.25 18C26.2663 18 23.4049 19.1853 21.2951 21.295C19.1853 23.4048 18 26.2663 18 29.25C18.0075 35.8118 20.6175 42.1028 25.2574 46.7427C29.8973 51.3826 36.1882 53.9926 42.75 54C44.2274 54 45.6903 53.709 47.0552 53.1436C48.4201 52.5783 49.6603 51.7496 50.705 50.705C51.7496 49.6603 52.5783 48.4201 53.1437 47.0552C53.709 45.6903 54 44.2274 54 42.75C54.0003 42.332 53.8842 41.9222 53.6646 41.5665C53.445 41.2108 53.1307 40.9233 52.7569 40.7362ZM42.75 49.5C37.3812 49.494 32.234 47.3587 28.4377 43.5623C24.6414 39.766 22.506 34.6188 22.5 29.25C22.4996 27.6894 23.0399 26.1769 24.0291 24.9698C25.0182 23.7627 26.3951 22.9356 27.9253 22.6294L31.1541 29.0981L28.4063 33.1875C28.201 33.4955 28.0748 33.8494 28.039 34.2179C28.0032 34.5863 28.0588 34.9579 28.201 35.2997C29.8108 39.1258 32.8546 42.1695 36.6807 43.7794C37.0235 43.9279 37.3979 43.9886 37.7701 43.9562C38.1423 43.9238 38.5005 43.7993 38.8125 43.5938L42.9216 40.8544L49.3904 44.0831C49.0817 45.6151 48.251 46.9926 47.0401 47.9805C45.8291 48.9683 44.3128 49.5054 42.75 49.5ZM36 6.75C30.9501 6.7489 25.9859 8.05525 21.5906 10.5419C17.1953 13.0285 13.5187 16.6108 10.9186 20.9399C8.31856 25.269 6.88358 30.1976 6.75338 35.2459C6.62318 40.2941 7.80219 45.2901 10.1757 49.7475L6.98347 59.3241C6.71906 60.1169 6.68068 60.9678 6.87266 61.7813C7.06463 62.5947 7.47936 63.3387 8.07037 63.9297C8.66138 64.5207 9.4053 64.9354 10.2188 65.1274C11.0322 65.3194 11.8831 65.281 12.676 65.0166L22.2525 61.8244C26.1753 63.9108 30.5219 65.0762 34.9623 65.232C39.4027 65.3878 43.8203 64.53 47.8797 62.7236C51.939 60.9173 55.5336 58.2098 58.3904 54.8069C61.2472 51.4039 63.2912 47.3948 64.3673 43.0839C65.4433 38.7731 65.5232 34.2737 64.6007 29.9274C63.6783 25.581 61.7778 21.5019 59.0435 17.9998C56.3092 14.4976 52.813 11.6643 48.8203 9.71509C44.8275 7.76584 40.4432 6.75182 36 6.75ZM36 60.75C31.649 60.753 27.3744 59.6072 23.6082 57.4284C23.3324 57.2685 23.0258 57.169 22.7087 57.1365C22.3916 57.1041 22.0712 57.1393 21.7688 57.24L11.25 60.75L14.7572 50.2313C14.8583 49.929 14.8941 49.6087 14.8621 49.2916C14.8301 48.9745 14.731 48.6678 14.5716 48.3919C11.8434 43.6751 10.748 38.1898 11.4554 32.7869C12.1628 27.384 14.6335 22.3656 18.484 18.5102C22.3346 14.6547 27.3499 12.1778 32.7519 11.4635C38.1538 10.7493 43.6405 11.8377 48.3608 14.56C53.081 17.2822 56.771 21.4861 58.8582 26.5195C60.9455 31.5529 61.3133 37.1344 59.9047 42.3981C58.4961 47.6619 55.3897 52.3137 51.0676 55.6318C46.7454 58.95 41.449 60.7491 36 60.75Z" fill="white"/>
</svg>
