<?xml version="1.0" encoding="UTF-8"?>
<svg id="Capa_2" data-name="Capa 2" xmlns="http://www.w3.org/2000/svg" viewBox="0 0 1271.26 218.26">
  <g id="Capa_1-2" data-name="Capa 1">
    <g>
      <path d="M0,216.52L102.17,1.74h53.98l33.09,214.78h-44.7l-6.09-44.99h-73.43l-20.9,44.99H0ZM81.27,132.93h52.82l-11.03-94.04-41.79,94.04Z"/>
      <path d="M263.25,216.52c-12.97,0-23.32-3.09-31.06-9.29-7.74-6.19-11.61-16.06-11.61-29.6,0-2.32.09-4.54.29-6.68.19-2.13.39-4.35.58-6.68L247.29,1.74h42.96l-24.67,157.02c-.19.97-.34,1.89-.44,2.76-.1.87-.15,1.79-.15,2.76,0,5.03,1.5,8.56,4.5,10.59,3,2.03,7.11,3.05,12.33,3.05h67.92l-6.38,38.6h-80.11Z"/>
      <path d="M361.64,216.52L421.72,1.74h40.34l24.09,163.99L562.2,1.74h40.05l-8.71,214.78h-41.5l5.8-138.16-59.79,138.16h-40.34l-16.25-136.42-37.15,136.42h-42.67Z"/>
      <path d="M696.59,218.26c-11.03,0-21.09-.92-30.19-2.76-9.1-1.84-16.93-5.22-23.51-10.16-6.58-4.93-11.61-11.8-15.09-20.61-3.48-8.8-5.22-20.27-5.22-34.39,0-6.77.39-14.22,1.16-22.35.77-8.13,1.84-16.35,3.19-24.67,3.29-20.12,7.64-36.86,13.06-50.21,5.41-13.35,12.29-23.9,20.61-31.64,8.32-7.74,18.33-13.25,30.04-16.54,11.71-3.29,25.4-4.93,41.07-4.93,10.64,0,20.46.97,29.46,2.9,9,1.94,16.83,5.47,23.51,10.59,6.67,5.13,11.85,12.34,15.53,21.62,3.67,9.29,5.51,21.29,5.51,35.99,0,6.2-.39,13.35-1.16,21.48-.78,8.13-1.94,16.45-3.48,24.96-3.1,20.9-7.4,37.93-12.92,51.08-5.52,13.16-12.44,23.32-20.75,30.48-8.32,7.16-18.29,12.15-29.89,14.95-11.61,2.8-25.25,4.21-40.92,4.21ZM703.55,179.37c8.51,0,15.82-1.16,21.91-3.48,6.1-2.32,11.22-6.14,15.38-11.46,4.16-5.32,7.64-12.29,10.45-20.9,2.8-8.61,5.17-19.2,7.11-31.78,1.16-7.93,2.13-15.43,2.9-22.49.77-7.06,1.16-12.92,1.16-17.56,0-9.29-1.36-16.25-4.06-20.9-2.71-4.64-6.78-7.84-12.19-9.58-5.42-1.74-12.38-2.61-20.9-2.61s-15.24,1.07-21.33,3.19c-6.09,2.13-11.27,5.76-15.53,10.88-4.26,5.13-7.89,12.24-10.88,21.33-3,9.1-5.56,20.8-7.69,35.12-1.36,7.74-2.42,15.05-3.19,21.91-.78,6.87-1.16,12.53-1.16,16.98,0,8.32,1.31,14.76,3.92,19.3,2.61,4.55,6.72,7.69,12.34,9.43,5.61,1.74,12.87,2.61,21.77,2.61Z"/>
      <path d="M816.45,216.52L850.41,1.74h34.54l67.34,141.64L974.93,1.74h42.96l-34.25,214.78h-34.25l-67.34-141.93-22.64,141.93h-42.96Z"/>
      <path d="M1064.9,216.52l27.86-176.18h-58.63l6.1-38.6h160.79l-6.09,38.6h-58.92l-27.86,176.18h-43.25Z"/>
      <path d="M1194.35,216.52L1228.31,1.74h42.96l-33.96,214.78h-42.96Z"/>
    </g>
  </g>
</svg>