<?xml version="1.0" encoding="UTF-8"?>
<svg id="Capa_2" data-name="Capa 2" xmlns="http://www.w3.org/2000/svg" viewBox="0 0 1358.14 218.4">
  <g id="Capa_1-2" data-name="Capa 1">
    <g>
      <g>
        <path d="M0,216.53L102.17,1.75h53.98l33.09,214.78h-44.7l-6.09-44.99h-73.43l-20.9,44.99H0ZM81.27,132.94h52.82l-11.03-94.04-41.79,94.04Z"/>
        <path d="M263.25,216.53c-25.54-.17-42.99-11.56-42.67-38.89-2.69,2.2,26.47-172.04,26.7-175.89h42.96c1.61,8.31-34.35,173.07-20.76,173.13,6.27,6.11,71.47,1.86,80.26,3.05l-6.38,38.6h-80.11Z"/>
        <path d="M361.64,216.53L421.72,1.75h40.34l24.09,163.99L562.2,1.75h40.05l-8.71,214.78h-41.5l5.8-138.16-59.79,138.16h-40.34l-16.25-136.42-37.15,136.42h-42.67Z"/>
        <path d="M696.59,218.27c-78.73,2.5-79.86-51.6-69.66-114.94,7.6-44.12,19.4-85.94,63.71-98.39,19.23-5.56,49.54-6.69,70.53-2.03,41.83,7.61,48.17,51.77,43.39,89.69-8.46,74.4-22.26,128.85-107.97,125.68ZM703.55,179.38c48.89,3.16,53.18-52.75,57.76-90.12,1.67-19,4.51-41.42-15.09-48.03-10.68-3.53-31.15-3.62-42.23.58-26.35,10.96-28.73,39.24-34.1,67.34-5,34.87-15.48,72.85,33.67,70.24Z"/>
        <path d="M816.45,216.53L850.41,1.75h34.54l67.34,141.64L974.93,1.75h42.96l-34.25,214.78h-34.25l-67.34-141.93-22.64,141.93h-42.96Z"/>
        <path d="M1064.9,216.53l27.86-176.18h-58.63l6.1-38.6h160.79l-6.09,38.6h-58.92l-27.86,176.18h-43.25Z"/>
        <path d="M1195.35,216.53L1229.31,1.75h42.96l-33.96,214.78h-42.96Z"/>
      </g>
      <path d="M1330.95,174.1h-128.83s-3.98,42.42-3.98,42.42h125.25s7.55-42.42,7.55-42.42Z"/>
      <path d="M1358.14,1.76h-128.83s-3.98,42.42-3.98,42.42h125.25s7.55-42.42,7.55-42.42Z"/>
      <path d="M1332.14,87.93h-115.75s-3.57,42.42-3.57,42.42h112.54s6.79-42.42,6.79-42.42Z"/>
    </g>
  </g>
</svg>