<?xml version="1.0" encoding="UTF-8"?>
<svg id="Capa_2" data-name="Capa 2" xmlns="http://www.w3.org/2000/svg" viewBox="0 0 1265.19 200.56">
  <g id="Capa_1-2" data-name="Capa 1">
    <g>
      <g>
        <path d="M0,198.97L91.5,1.6h57.46l28.73,197.37h-47.61l-4.26-35.91h-63.04l-15.69,35.91H0ZM80.07,121.83h41.23l-7.71-80.86-33.52,80.86Z"/>
        <path d="M245.51,198.97c-12.42,0-22.34-3.06-29.79-9.18-7.45-6.12-11.17-15.74-11.17-28.86,0-1.95.09-3.99.27-6.12.17-2.13.44-4.34.8-6.65L228.76,1.6h46.02l-22.34,140.45c-.18.89-.27,1.64-.27,2.26v1.99c0,3.9,1.15,6.78,3.46,8.65,2.3,1.86,5.76,2.79,10.37,2.79h59.32l-6.65,41.23h-73.15Z"/>
        <path d="M333.56,198.97L389.15,1.6h43.09l20.22,144.17L518.69,1.6h42.56l-7.71,197.37h-44.42l4.79-115.71-48.68,115.71h-43.09l-11.97-113.85-31.12,113.85h-45.49Z"/>
        <path d="M647.97,200.56c-10.11,0-19.42-.89-27.93-2.66-8.51-1.77-15.92-4.96-22.21-9.58-6.3-4.61-11.08-11.08-14.36-19.42-3.28-8.33-4.92-19.06-4.92-32.19,0-6.03.35-12.81,1.06-20.35.71-7.54,1.68-14.94,2.93-22.21,2.83-18.26,6.78-33.42,11.84-45.49,5.05-12.06,11.44-21.63,19.15-28.73,7.71-7.09,17.02-12.19,27.93-15.29,10.91-3.1,23.72-4.65,38.44-4.65,10.11,0,19.37.89,27.8,2.66,8.42,1.77,15.74,5.05,21.95,9.84,6.21,4.79,11.08,11.57,14.63,20.35,3.54,8.78,5.32,20.18,5.32,34.18,0,5.5-.36,12.02-1.06,19.55-.71,7.54-1.69,15.03-2.93,22.48-2.84,18.8-6.78,34.18-11.84,46.15-5.05,11.97-11.44,21.24-19.15,27.8-7.71,6.56-17.07,11.13-28.06,13.7-11,2.57-23.85,3.86-38.57,3.86ZM655.15,159.07c7.27,0,13.39-1.06,18.35-3.19,4.96-2.13,9.13-5.45,12.5-9.97,3.37-4.52,6.12-10.33,8.25-17.42,2.13-7.09,3.99-15.6,5.59-25.54,1.06-6.92,1.95-13.57,2.66-19.95.71-6.38,1.06-11.53,1.06-15.43,0-7.27-1.06-12.77-3.19-16.49s-5.37-6.29-9.71-7.71c-4.35-1.42-10.07-2.13-17.16-2.13s-12.59.93-17.56,2.79c-4.97,1.86-9.18,4.92-12.63,9.18s-6.38,10.2-8.78,17.82c-2.39,7.63-4.48,17.29-6.25,28.99-1.06,6.74-2,13.21-2.79,19.42-.8,6.21-1.2,11.17-1.2,14.9,0,6.38,1.06,11.4,3.19,15.03,2.13,3.64,5.45,6.16,9.97,7.58,4.52,1.42,10.42,2.13,17.69,2.13Z"/>
        <path d="M757.29,198.97L788.68,1.6h36.44l56.66,119.43L900.67,1.6h46.02l-31.39,197.37h-36.44l-56.66-119.43-18.89,119.43h-46.02Z"/>
        <path d="M985.52,198.97l24.74-156.14h-51.34l6.65-41.23h148.43l-6.65,41.23h-51.07l-24.74,156.14h-46.02Z"/>
      </g>
      <path d="M1265.19,1.97h-129.7s-6.98,42.42-6.98,42.42h128.9s7.77-42.42,7.77-42.42Z"/>
    </g>
    <path d="M1164.01,155.87c-2.31-1.06-3.86-2.79-4.66-5.19s-.93-5.36-.4-8.91l3.19-21.01,70.22-2.39,5.59-36.44-61.6-2.13h-7.73s5.59-35.4,5.59-35.4h11.67c1.22-.16,2.53-.24,3.93-.24h67.56l6.12-38.84c-13.83-1.06-27.4-1.95-40.7-2.66-13.3-.71-26.6-1.06-39.9-1.06-9.04,0-17.42,1.51-25.14,4.52-7.71,3.02-14.19,7.94-19.42,14.76-5.23,6.83-8.82,16.36-10.77,28.59l-16.76,105.07c-1.6,9.75-1.16,17.65,1.33,23.67,2.48,6.03,6.07,10.69,10.77,13.96,4.7,3.28,9.84,5.5,15.43,6.65,5.59,1.15,10.86,1.73,15.83,1.73,14.54,0,28.28-.44,41.23-1.33,12.94-.89,25.62-1.95,38.04-3.19l6.12-38.57h-66.77c-3.55,0-6.48-.53-8.78-1.6Z"/>
  </g>
</svg>